<?xml version="1.0" encoding="UTF-8" standalone="no"?>
<!-- Created with Inkscape (http://www.inkscape.org/) -->

<svg
   xmlns:dc="http://purl.org/dc/elements/1.1/"
   xmlns:cc="http://creativecommons.org/ns#"
   xmlns:rdf="http://www.w3.org/1999/02/22-rdf-syntax-ns#"
   xmlns:svg="http://www.w3.org/2000/svg"
   xmlns="http://www.w3.org/2000/svg"
   xmlns:sodipodi="http://sodipodi.sourceforge.net/DTD/sodipodi-0.dtd"
   xmlns:inkscape="http://www.inkscape.org/namespaces/inkscape"
   width="340"
   height="200"
   viewBox="0 0 340 200.00001"
   id="svg2"
   version="1.1"
   inkscape:version="0.91 r13725"
   sodipodi:docname="logo.svg">
  <defs
     id="defs4">
    <inkscape:path-effect
       fuse_tolerance="0"
       vertical_pattern="false"
       prop_units="false"
       tang_offset="0"
       normal_offset="0"
       spacing="0"
       scale_y_rel="false"
       prop_scale="1"
       copytype="single_stretched"
       pattern="m -125.64616,-5.3293581 1,0"
       is_visible="true"
       id="path-effect4277"
       effect="skeletal" />
    <inkscape:path-effect
       fuse_tolerance="0"
       vertical_pattern="false"
       prop_units="false"
       tang_offset="0"
       normal_offset="0"
       spacing="0"
       scale_y_rel="false"
       prop_scale="1"
       copytype="single_stretched"
       pattern="m 60.881583,2.5369788 1,0"
       is_visible="true"
       id="path-effect4273"
       effect="skeletal" />
    <inkscape:path-effect
       fuse_tolerance="0"
       vertical_pattern="false"
       prop_units="false"
       tang_offset="0"
       normal_offset="0"
       spacing="0"
       scale_y_rel="false"
       prop_scale="1"
       copytype="single_stretched"
       pattern="m 55.179283,-4.2976243e-6 1,0"
       is_visible="true"
       id="path-effect4689"
       effect="skeletal" />
    <marker
       inkscape:stockid="Arrow1Lstart"
       orient="auto"
       refY="0"
       refX="0"
       id="Arrow1Lstart"
       style="overflow:visible"
       inkscape:isstock="true">
      <path
         id="path4411"
         d="M 0,0 5,-5 -12.5,0 5,5 0,0 Z"
         style="fill:#00ffef;fill-opacity:1;fill-rule:evenodd;stroke:#00ffef;stroke-width:1pt;stroke-opacity:1"
         transform="matrix(0.8,0,0,0.8,10,0)"
         inkscape:connector-curvature="0" />
    </marker>
    <inkscape:path-effect
       effect="skeletal"
       id="path-effect4405"
       is_visible="true"
       pattern="m -178.86764,-5.3293581 1,0"
       copytype="single_stretched"
       prop_scale="1"
       scale_y_rel="false"
       spacing="0"
       normal_offset="0"
       tang_offset="0"
       prop_units="false"
       vertical_pattern="false"
       fuse_tolerance="0" />
    <inkscape:path-effect
       effect="skeletal"
       id="path-effect4401"
       is_visible="true"
       pattern="M 0,0 1,0"
       copytype="single_stretched"
       prop_scale="1"
       scale_y_rel="false"
       spacing="0"
       normal_offset="0"
       tang_offset="0"
       prop_units="false"
       vertical_pattern="false"
       fuse_tolerance="0" />
    <inkscape:path-effect
       effect="spiro"
       id="path-effect4399"
       is_visible="true" />
    <inkscape:path-effect
       effect="skeletal"
       id="path-effect4393"
       is_visible="true"
       pattern="M 0,0 1,0"
       copytype="single_stretched"
       prop_scale="1"
       scale_y_rel="false"
       spacing="0"
       normal_offset="0"
       tang_offset="0"
       prop_units="false"
       vertical_pattern="false"
       fuse_tolerance="0" />
    <inkscape:path-effect
       effect="spiro"
       id="path-effect4391"
       is_visible="true" />
    <inkscape:path-effect
       effect="skeletal"
       id="path-effect4387"
       is_visible="true"
       pattern="m -2.8157914,1.5643287 1,0"
       copytype="single_stretched"
       prop_scale="1"
       scale_y_rel="false"
       spacing="0"
       normal_offset="0"
       tang_offset="0"
       prop_units="false"
       vertical_pattern="false"
       fuse_tolerance="0" />
    <inkscape:path-effect
       effect="spiro"
       id="path-effect4385"
       is_visible="true" />
  </defs>
  <sodipodi:namedview
     id="base"
     pagecolor="#ffffff"
     bordercolor="#666666"
     borderopacity="1.0"
     inkscape:pageopacity="0.0"
     inkscape:pageshadow="2"
     inkscape:zoom="0.5"
     inkscape:cx="201.41989"
     inkscape:cy="45.912825"
     inkscape:document-units="px"
     inkscape:current-layer="layer1"
     showgrid="false"
     showguides="true"
     inkscape:guide-bbox="true"
     inkscape:object-nodes="false"
     inkscape:window-width="1914"
     inkscape:window-height="1050"
     inkscape:window-x="1917"
     inkscape:window-y="21"
     inkscape:window-maximized="1"
     fit-margin-top="10"
     fit-margin-left="10"
     fit-margin-right="10"
     fit-margin-bottom="10"
     units="px">
    <sodipodi:guide
       position="-27.370116,137.83354"
       orientation="1,0"
       id="guide4225" />
  </sodipodi:namedview>
  <metadata
     id="metadata7">
    <rdf:RDF>
      <cc:Work
         rdf:about="">
        <dc:format>image/svg+xml</dc:format>
        <dc:type
           rdf:resource="http://purl.org/dc/dcmitype/StillImage" />
        <dc:title></dc:title>
      </cc:Work>
    </rdf:RDF>
  </metadata>
  <g
     inkscape:label="Calque 1"
     inkscape:groupmode="layer"
     id="layer1"
     transform="translate(551.14486,-236.68824)">
    <g
       id="g4351"
       transform="translate(176.26792,-1.76597)">
      <g
         style="fill:#241f1c"
         transform="translate(-215.03501,-75.218009)"
         id="g4305">
        <path
           style="opacity:1;fill:#241f1c;fill-opacity:1;stroke:none;stroke-width:2;stroke-linecap:round;stroke-linejoin:round;stroke-miterlimit:4;stroke-dasharray:none;stroke-opacity:1"
           d="m -434.24056,363.97234 c -0.5038,-0.002 -1.00777,0.008 -1.50977,0.0312 -8.5449,0.3893 -20.85037,5.64006 -27.32617,11.22852 -9.85377,8.74614 -13.01208,24.16233 -10.54883,38.60156 3.67456,13.30185 14.92022,23.42641 24.44531,33.41211 13.71635,14.37963 46.76368,37.21094 46.76368,37.21094 0,0 33.04927,-22.83131 46.76562,-37.21094 9.52509,-9.9857 20.77075,-20.11026 24.44531,-33.41211 2.46325,-14.43923 -0.69506,-29.85542 -10.54883,-38.60156 -6.4758,-5.58846 -18.78322,-10.83922 -27.32812,-11.22852 -16.06407,-0.73187 -33.33398,11.43555 -33.33398,11.43555 0,0 -16.20661,-11.41849 -31.82422,-11.4668 z"
           id="rect4222"
           inkscape:connector-curvature="0" />
        <path
           style="opacity:1;fill:#241f1c;fill-opacity:1;stroke:none;stroke-width:2;stroke-linecap:round;stroke-linejoin:round;stroke-miterlimit:4;stroke-dasharray:none;stroke-opacity:1"
           d="m -446.16799,327.22894 13.47695,39.71161 -13.60793,2.22433 z"
           id="rect4230"
           inkscape:connector-curvature="0"
           sodipodi:nodetypes="cccc" />
        <path
           style="opacity:1;fill:#241f1c;fill-opacity:1;stroke:none;stroke-width:2;stroke-linecap:round;stroke-linejoin:round;stroke-miterlimit:4;stroke-dasharray:none;stroke-opacity:1"
           d="m -502.08874,432.18752 43.06284,-22.3134 4.90908,15.17245 z"
           id="path4237"
           inkscape:connector-curvature="0"
           sodipodi:nodetypes="cccc" />
        <path
           sodipodi:nodetypes="cccc"
           inkscape:connector-curvature="0"
           id="path4251"
           d="m -366.16208,325.43819 -11.93271,40.20261 13.68371,1.69696 z"
           style="opacity:1;fill:#241f1c;fill-opacity:1;stroke:none;stroke-width:2;stroke-linecap:round;stroke-linejoin:round;stroke-miterlimit:4;stroke-dasharray:none;stroke-opacity:1" />
        <path
           sodipodi:nodetypes="cccc"
           inkscape:connector-curvature="0"
           id="path4272"
           d="m -487.85508,456.09796 37.27517,-31.02994 8.04892,13.76653 z"
           style="opacity:1;fill:#241f1c;fill-opacity:1;stroke:none;stroke-width:2;stroke-linecap:round;stroke-linejoin:round;stroke-miterlimit:4;stroke-dasharray:none;stroke-opacity:1" />
        <path
           style="opacity:1;fill:#241f1c;fill-opacity:1;stroke:none;stroke-width:2;stroke-linecap:round;stroke-linejoin:round;stroke-miterlimit:4;stroke-dasharray:none;stroke-opacity:1"
           d="m -468.99464,476.48981 29.1228,-38.78348 11.00425,11.54162 z"
           id="path4293"
           inkscape:connector-curvature="0"
           sodipodi:nodetypes="cccc" />
        <path
           sodipodi:nodetypes="cccc"
           inkscape:connector-curvature="0"
           id="path4295"
           d="m -442.56646,496.59675 11.24796,-47.17816 14.69305,6.19813 z"
           style="opacity:1;fill:#241f1c;fill-opacity:1;stroke:none;stroke-width:2;stroke-linecap:round;stroke-linejoin:round;stroke-miterlimit:4;stroke-dasharray:none;stroke-opacity:1" />
        <path
           sodipodi:nodetypes="cccc"
           inkscape:connector-curvature="0"
           id="path4297"
           d="m -308.66548,428.86908 -43.06284,-22.3134 -4.90908,15.17245 z"
           style="opacity:1;fill:#241f1c;fill-opacity:1;stroke:none;stroke-width:2;stroke-linecap:round;stroke-linejoin:round;stroke-miterlimit:4;stroke-dasharray:none;stroke-opacity:1" />
        <path
           style="opacity:1;fill:#241f1c;fill-opacity:1;stroke:none;stroke-width:2;stroke-linecap:round;stroke-linejoin:round;stroke-miterlimit:4;stroke-dasharray:none;stroke-opacity:1"
           d="m -321.793,453.00075 -37.27517,-31.02994 -8.04892,13.76653 z"
           id="path4299"
           inkscape:connector-curvature="0"
           sodipodi:nodetypes="cccc" />
        <path
           sodipodi:nodetypes="cccc"
           inkscape:connector-curvature="0"
           id="path4301"
           d="m -338.66237,475.16244 -29.1228,-38.78348 -11.00425,11.54162 z"
           style="opacity:1;fill:#241f1c;fill-opacity:1;stroke:none;stroke-width:2;stroke-linecap:round;stroke-linejoin:round;stroke-miterlimit:4;stroke-dasharray:none;stroke-opacity:1" />
        <path
           style="opacity:1;fill:#241f1c;fill-opacity:1;stroke:none;stroke-width:2;stroke-linecap:round;stroke-linejoin:round;stroke-miterlimit:4;stroke-dasharray:none;stroke-opacity:1"
           d="m -361.55088,501.90626 -11.24796,-47.17816 -14.69305,6.19813 z"
           id="path4303"
           inkscape:connector-curvature="0"
           sodipodi:nodetypes="cccc" />
      </g>
      <path
         sodipodi:nodetypes="ccccccc"
         inkscape:connector-curvature="0"
         id="rect4342"
         d="m -617.48828,304.08789 0,68.39844 200.69773,0 19.08875,-19.61719 0,-29.16797 -19.08093,-19.61328 z"
         style="opacity:1;fill:#241f1c;fill-opacity:1;stroke:none;stroke-width:9.39999962;stroke-linecap:round;stroke-linejoin:round;stroke-miterlimit:4;stroke-dasharray:none;stroke-opacity:1" />
      <path
         sodipodi:nodetypes="ccsccssccscccscccccccscccsccssccsccsscsscc"
         inkscape:connector-curvature="0"
         id="path4403"
         d="m -648.90875,310.20362 c -0.0252,2.4e-4 -0.0494,0.002 -0.0747,0.002 -3.69405,1.57017 -9.76225,2.50707 -16.24279,2.50781 -2.6729,3.1e-4 -5.31829,-0.15915 -7.77637,-0.46875 -0.22987,0.52647 -0.37664,1.10576 -0.40967,1.7207 0,0 -1.34638,19.7014 2.04834,32.62891 1.56628,5.96461 4.47768,11.03337 8.75046,14.49219 4.27277,3.45881 9.738,5.18445 15.90959,5.24023 0.86461,0.0131 1.71351,-0.24856 2.43979,-0.75195 -5.38712,-0.35936 -10.18765,-2.02723 -13.98508,-5.15625 -13.12741,-10.81679 -6.66389,-38.91406 -6.66389,-38.91406 0.20507,-0.82567 0.2048,-0.35284 0.20574,-0.82617 1.13745,0.14791 2.29287,0.35505 3.36472,0.3125 3.29098,-0.13072 6.36358,-0.80939 9.3331,-1.16993 5.88742,-0.7148 10.87349,-0.78954 17.09125,5.58985 5.98223,5.09001 9.71494,13.74216 12.69782,21.41211 1.61416,5.32009 4.31205,10.86232 5.20547,16.22851 0.10643,-0.10503 0.206,-0.21684 0.30224,-0.33398 0.0962,0.11714 0.1958,0.22895 0.30224,0.33398 1.28108,-5.55544 3.47273,-11.74032 5.20547,-16.22856 2.98287,-7.66995 6.71559,-16.3221 12.69781,-21.41211 6.21776,-6.37939 11.20384,-6.30465 17.09126,-5.58985 2.96952,0.36054 6.04212,1.03921 9.3331,1.16993 1.07185,0.0426 2.22726,-0.16459 3.36472,-0.3125 9.3e-4,0.47333 6.6e-4,5e-4 0.20574,0.82617 0,0 6.46352,28.09727 -6.66389,38.91406 -3.79743,3.12902 -8.59796,4.79689 -13.98509,5.15625 0.72628,0.50339 1.57518,0.76505 2.43979,0.75195 6.1716,-0.0558 11.63683,-1.78142 15.9096,-5.24023 4.27278,-3.45882 7.18418,-8.52758 8.75046,-14.49219 3.39472,-12.92751 2.04833,-32.62891 2.04833,-32.62891 -0.033,-0.61494 -0.1798,-1.19423 -0.40967,-1.7207 -2.45808,0.3096 -5.10346,0.46906 -7.77636,0.46875 -6.48054,-7.4e-4 -12.54875,-0.93764 -16.2428,-2.50781 -0.0253,0 -0.0494,-0.002 -0.0746,-0.002 -6.19622,-0.0604 -13.53236,1.62638 -20.25388,8.62109 -5.77302,6.00765 -8.32894,15.783 -10.22708,24.32617 -0.75761,3.40986 -1.29225,6.47219 -1.71513,9.11328 -0.42289,-2.64109 -0.95753,-5.70342 -1.71514,-9.11328 -1.89813,-8.54317 -4.45406,-18.31852 -10.22707,-24.32617 -6.72152,-6.99471 -14.05766,-8.68151 -20.25388,-8.62109 z"
         style="color:#000000;font-style:normal;font-variant:normal;font-weight:normal;font-stretch:normal;font-size:medium;line-height:normal;font-family:sans-serif;text-indent:0;text-align:start;text-decoration:none;text-decoration-line:none;text-decoration-style:solid;text-decoration-color:#000000;letter-spacing:normal;word-spacing:normal;text-transform:none;direction:ltr;block-progression:tb;writing-mode:lr-tb;baseline-shift:baseline;text-anchor:start;white-space:normal;clip-rule:nonzero;display:inline;overflow:visible;visibility:visible;opacity:1;isolation:auto;mix-blend-mode:normal;color-interpolation:sRGB;color-interpolation-filters:linearRGB;solid-color:#000000;solid-opacity:1;fill:#c4c8b7;fill-opacity:1;fill-rule:evenodd;stroke:none;stroke-width:9.39999962;stroke-linecap:round;stroke-linejoin:round;stroke-miterlimit:4;stroke-dasharray:none;stroke-dashoffset:0;stroke-opacity:1;color-rendering:auto;image-rendering:auto;shape-rendering:auto;text-rendering:auto;enable-background:accumulate" />
      <text
         sodipodi:linespacing="125%"
         id="text4283"
         y="353.30603"
         x="-553.83679"
         style="font-style:normal;font-weight:normal;font-size:40px;line-height:125%;font-family:Sans;letter-spacing:0px;word-spacing:0px;fill:#8a916f;fill-opacity:1;stroke:none;stroke-width:1px;stroke-linecap:butt;stroke-linejoin:miter;stroke-opacity:1"
         xml:space="preserve"><tspan
           style="font-style:normal;font-variant:normal;font-weight:bold;font-stretch:normal;font-size:60px;font-family:Bluu;-inkscape-font-specification:'Bluu Bold';fill:#8a916f"
           y="353.30603"
           x="-553.83679"
           id="tspan4285"
           sodipodi:role="line">ajora</tspan></text>
    </g>
  </g>
</svg>
